<svg width="250" height="250" viewBox="0 0 250 250" fill="none" xmlns="http://www.w3.org/2000/svg">
<path d="M125 0C56.0156 0 0 56.0156 0 125C0 193.984 56.0156 250 125 250C193.984 250 250 193.984 250 125C250 56.0156 193.984 0 125 0ZM125 7.8125C189.766 7.8125 242.188 60.2344 242.188 125C242.188 189.766 189.766 242.188 125 242.188C60.2344 242.188 7.8125 189.766 7.8125 125C7.8125 60.2344 60.2344 7.8125 125 7.8125ZM93.7344 62.5C89.5834 62.5165 85.6085 64.1793 82.682 67.1233C79.7556 70.0673 78.1167 74.0521 78.125 78.2031V156.484C78.125 165.133 85.1172 172.188 93.7344 172.188H128.023C132.5 181.219 141.688 187.5 152.391 187.5C158.616 187.488 164.652 185.355 169.503 181.453C174.353 177.55 177.729 172.111 179.074 166.033C180.419 159.954 179.653 153.599 176.901 148.014C174.149 142.43 169.577 137.95 163.938 135.312V97.9141C163.938 97.7344 163.859 97.5859 163.836 97.4141C163.751 96.5621 163.385 95.7625 162.797 95.1406L131.594 63.7969C131.477 63.6875 131.305 63.6797 131.18 63.5859C130.458 62.8899 129.495 62.5007 128.492 62.5H93.7344ZM132.734 76.1562L150.586 93.9922H140.445C139.431 93.9912 138.427 93.7902 137.49 93.4009C136.554 93.0116 135.703 92.4414 134.987 91.7231C134.271 91.0048 133.703 90.1524 133.317 89.2146C132.93 88.2769 132.732 87.2721 132.734 86.2578V76.1562ZM152.391 140.484C157.574 140.501 162.538 142.574 166.194 146.247C169.85 149.921 171.899 154.895 171.891 160.078C171.897 165.259 169.847 170.23 166.191 173.901C162.535 177.572 157.571 179.642 152.391 179.656C147.21 179.642 142.246 177.572 138.59 173.901C134.934 170.23 132.884 165.259 132.891 160.078C132.882 154.895 134.931 149.921 138.587 146.247C142.243 142.574 147.208 140.501 152.391 140.484ZM159.664 150.422L149.477 160.656L145.078 156.266L139.57 161.805L149.477 171.734L165.18 155.953L159.664 150.422Z" fill="#D8A353"/>
</svg>
