<svg width="234" height="36" viewBox="0 0 234 36" fill="none" xmlns="http://www.w3.org/2000/svg">
<path d="M30.7281 7.53125H27.525L27.5094 6.71875H30.2672C30.8297 6.71875 31.3089 6.63802 31.7047 6.47656C32.1005 6.3151 32.4 6.07552 32.6031 5.75781C32.8115 5.4349 32.9156 5.03906 32.9156 4.57031C32.9156 4.09115 32.8141 3.69531 32.6109 3.38281C32.4078 3.0651 32.1031 2.83073 31.6969 2.67969C31.2906 2.52865 30.7802 2.45312 30.1656 2.45312H27.775V13H26.8141V1.625H30.1656C30.7438 1.625 31.262 1.68229 31.7203 1.79688C32.1786 1.91146 32.5693 2.09115 32.8922 2.33594C33.2151 2.58073 33.4599 2.89062 33.6266 3.26562C33.7984 3.63542 33.8844 4.07812 33.8844 4.59375C33.8844 5.0625 33.7802 5.48698 33.5719 5.86719C33.3635 6.24219 33.0693 6.54948 32.6891 6.78906C32.3141 7.02344 31.8635 7.16927 31.3375 7.22656L30.7281 7.53125ZM30.6578 13H27.2203L27.7125 12.1797H30.6578C31.2203 12.1797 31.6995 12.0859 32.0953 11.8984C32.4964 11.7057 32.8036 11.4323 33.0172 11.0781C33.2307 10.724 33.3375 10.3021 33.3375 9.8125C33.3375 9.38021 33.2438 8.99219 33.0563 8.64844C32.8688 8.30469 32.5823 8.03385 32.1969 7.83594C31.8115 7.63281 31.3219 7.53125 30.7281 7.53125H28.7359L28.7516 6.71875H31.5719L31.7438 7.00781C32.2542 7.0599 32.6995 7.21875 33.0797 7.48438C33.4651 7.74479 33.762 8.07552 33.9703 8.47656C34.1839 8.8776 34.2906 9.31771 34.2906 9.79688C34.2906 10.4844 34.137 11.0677 33.8297 11.5469C33.5276 12.0208 33.1031 12.3828 32.5563 12.6328C32.0146 12.8776 31.3818 13 30.6578 13ZM40.6784 1.625V13H39.7175V1.625H40.6784ZM50.2303 1.625V13H49.2772V1.625H50.2303ZM54.1288 1.625V2.45312H45.3866V1.625H54.1288ZM65.1728 10.2031C65.1728 9.89062 65.1207 9.61198 65.0166 9.36719C64.9124 9.1224 64.7405 8.90365 64.5009 8.71094C64.2666 8.51302 63.9489 8.33073 63.5478 8.16406C63.152 7.99219 62.6572 7.82292 62.0634 7.65625C61.4957 7.49479 60.9827 7.31771 60.5244 7.125C60.066 6.93229 59.6728 6.71094 59.3447 6.46094C59.0218 6.21094 58.7744 5.91927 58.6025 5.58594C58.4306 5.2474 58.3447 4.85417 58.3447 4.40625C58.3447 3.96875 58.4384 3.57031 58.6259 3.21094C58.8134 2.85156 59.0765 2.54167 59.415 2.28125C59.7588 2.02083 60.1624 1.82031 60.6259 1.67969C61.0947 1.53906 61.6077 1.46875 62.165 1.46875C62.9619 1.46875 63.6494 1.61979 64.2275 1.92188C64.8108 2.22396 65.2614 2.63281 65.5791 3.14844C65.902 3.65885 66.0634 4.23177 66.0634 4.86719H65.1025C65.1025 4.3724 64.9853 3.93229 64.7509 3.54688C64.5218 3.15625 64.1884 2.85156 63.7509 2.63281C63.3186 2.40885 62.79 2.29688 62.165 2.29688C61.54 2.29688 61.014 2.39323 60.5869 2.58594C60.165 2.77344 59.8447 3.02604 59.6259 3.34375C59.4124 3.65625 59.3056 4.00521 59.3056 4.39062C59.3056 4.66146 59.3577 4.91146 59.4619 5.14062C59.566 5.36458 59.7353 5.57552 59.9697 5.77344C60.2093 5.96615 60.5244 6.14844 60.915 6.32031C61.3056 6.48698 61.7874 6.64583 62.3603 6.79688C62.9645 6.96354 63.5009 7.14844 63.9697 7.35156C64.4384 7.55469 64.8343 7.78906 65.1572 8.05469C65.4801 8.3151 65.7249 8.61979 65.8916 8.96875C66.0582 9.31771 66.1416 9.72396 66.1416 10.1875C66.1416 10.651 66.0426 11.0677 65.8447 11.4375C65.652 11.8021 65.3785 12.112 65.0244 12.3672C64.6754 12.6224 64.2614 12.8177 63.7822 12.9531C63.3082 13.0885 62.79 13.1562 62.2275 13.1562C61.7223 13.1562 61.2197 13.0911 60.7197 12.9609C60.2197 12.8307 59.7614 12.6302 59.3447 12.3594C58.9332 12.0833 58.6025 11.7292 58.3525 11.2969C58.1077 10.8646 57.9853 10.349 57.9853 9.75H58.9384C58.9384 10.2292 59.0348 10.6328 59.2275 10.9609C59.4202 11.2891 59.6754 11.5547 59.9931 11.7578C60.316 11.9609 60.6702 12.1094 61.0556 12.2031C61.4463 12.2917 61.8369 12.3359 62.2275 12.3359C62.8265 12.3359 63.3447 12.2474 63.7822 12.0703C64.2249 11.8932 64.566 11.6458 64.8056 11.3281C65.0504 11.0052 65.1728 10.6302 65.1728 10.2031ZM79.4875 6.86719L81.3156 5.49219C81.649 5.2474 81.9224 4.98438 82.1359 4.70312C82.3547 4.41667 82.4641 4.08073 82.4641 3.69531C82.4641 3.32552 82.3313 2.99479 82.0656 2.70312C81.8 2.41146 81.4172 2.26562 80.9172 2.26562C80.5526 2.26562 80.2453 2.34635 79.9953 2.50781C79.7453 2.66406 79.5578 2.8776 79.4328 3.14844C79.3078 3.41406 79.2453 3.70573 79.2453 4.02344C79.2453 4.27344 79.2948 4.53385 79.3938 4.80469C79.4979 5.07031 79.6438 5.34896 79.8313 5.64062C80.024 5.92708 80.2557 6.22917 80.5266 6.54688L86.0578 13H84.9328L80.2219 7.52344C79.8365 7.07552 79.4979 6.66146 79.2063 6.28125C78.9198 5.90104 78.6984 5.53125 78.5422 5.17188C78.3859 4.8125 78.3078 4.4401 78.3078 4.05469C78.3078 3.51823 78.4146 3.05729 78.6281 2.67188C78.8417 2.28646 79.1438 1.98958 79.5344 1.78125C79.925 1.56771 80.3859 1.46094 80.9172 1.46094C81.4276 1.46094 81.8625 1.5651 82.2219 1.77344C82.5865 1.97656 82.8651 2.2474 83.0578 2.58594C83.2505 2.91927 83.3469 3.28906 83.3469 3.69531C83.3469 4.03385 83.2714 4.34896 83.1203 4.64062C82.9745 4.93229 82.7844 5.19792 82.55 5.4375C82.3208 5.67188 82.0786 5.88802 81.8234 6.08594L79.7453 7.6875C79.2974 8.04688 78.9641 8.3776 78.7453 8.67969C78.5318 8.98177 78.3911 9.25 78.3234 9.48438C78.2557 9.71875 78.2219 9.92188 78.2219 10.0938C78.2219 10.4948 78.3156 10.8672 78.5031 11.2109C78.6906 11.5547 78.9771 11.8307 79.3625 12.0391C79.7479 12.2474 80.2323 12.3516 80.8156 12.3516C81.3052 12.3516 81.7792 12.2474 82.2375 12.0391C82.6958 11.8255 83.1047 11.5234 83.4641 11.1328C83.8286 10.737 84.1151 10.2682 84.3234 9.72656C84.537 9.17969 84.6438 8.57292 84.6438 7.90625H85.5031C85.5031 8.40104 85.4536 8.86458 85.3547 9.29688C85.2609 9.72917 85.1203 10.1276 84.9328 10.4922C84.7453 10.8568 84.5135 11.1927 84.2375 11.5C84.1958 11.5521 84.1672 11.5938 84.1516 11.625C84.1411 11.6562 84.1151 11.6927 84.0734 11.7344C83.6568 12.1719 83.1672 12.5182 82.6047 12.7734C82.0422 13.0286 81.4458 13.1562 80.8156 13.1562C80.0917 13.1562 79.4641 13.0286 78.9328 12.7734C78.4068 12.5182 78.0005 12.1615 77.7141 11.7031C77.4328 11.2396 77.2922 10.7031 77.2922 10.0938C77.2922 9.64062 77.3885 9.22917 77.5813 8.85938C77.774 8.48958 78.037 8.14323 78.3703 7.82031C78.7036 7.4974 79.076 7.17969 79.4875 6.86719ZM101.13 2.30469L97.1928 13H96.1928L100.49 1.625H101.185L101.13 2.30469ZM104.708 13L100.763 2.30469L100.708 1.625H101.404L105.708 13H104.708ZM104.005 8.98438V9.8125H97.9663V8.98438H104.005ZM116.854 12.1797V13H110.956V12.1797H116.854ZM111.237 1.625V13H110.276V1.625H111.237ZM129.281 7.59375V11.6406C129.151 11.8333 128.927 12.0469 128.609 12.2812C128.291 12.5156 127.864 12.7214 127.328 12.8984C126.791 13.0703 126.125 13.1562 125.328 13.1562C124.661 13.1562 124.049 13.0365 123.492 12.7969C122.935 12.5573 122.45 12.2109 122.039 11.7578C121.632 11.2995 121.317 10.75 121.093 10.1094C120.875 9.46875 120.765 8.75 120.765 7.95312V6.57812C120.765 5.79688 120.867 5.09375 121.07 4.46875C121.273 3.83854 121.567 3.29948 121.953 2.85156C122.338 2.40365 122.802 2.0625 123.343 1.82812C123.89 1.58854 124.502 1.46875 125.179 1.46875C126.023 1.46875 126.734 1.61458 127.312 1.90625C127.89 2.19792 128.341 2.59896 128.664 3.10938C128.992 3.61458 129.195 4.1875 129.273 4.82812H128.312C128.239 4.375 128.088 3.95833 127.859 3.57812C127.63 3.19271 127.297 2.88281 126.859 2.64844C126.427 2.41406 125.867 2.29688 125.179 2.29688C124.627 2.29688 124.135 2.39844 123.703 2.60156C123.276 2.80469 122.916 3.09375 122.625 3.46875C122.333 3.84375 122.112 4.29427 121.961 4.82031C121.81 5.34115 121.734 5.92188 121.734 6.5625V7.95312C121.734 8.61979 121.817 9.22135 121.984 9.75781C122.156 10.2943 122.401 10.7552 122.718 11.1406C123.036 11.526 123.416 11.8229 123.859 12.0312C124.302 12.2344 124.794 12.3359 125.336 12.3359C125.914 12.3359 126.406 12.2812 126.812 12.1719C127.218 12.0625 127.544 11.9323 127.789 11.7812C128.039 11.625 128.218 11.4792 128.328 11.3438V8.41406H125.273V7.59375H129.281ZM143.309 6.70312V7.92188C143.309 8.71875 143.205 9.4401 142.997 10.0859C142.794 10.7266 142.497 11.276 142.106 11.7344C141.721 12.1927 141.257 12.5443 140.716 12.7891C140.174 13.0339 139.565 13.1562 138.888 13.1562C138.226 13.1562 137.622 13.0339 137.075 12.7891C136.533 12.5443 136.067 12.1927 135.677 11.7344C135.286 11.276 134.984 10.7266 134.77 10.0859C134.557 9.4401 134.45 8.71875 134.45 7.92188V6.70312C134.45 5.90625 134.554 5.1875 134.763 4.54688C134.976 3.90104 135.278 3.34896 135.669 2.89062C136.059 2.43229 136.526 2.08073 137.067 1.83594C137.609 1.59115 138.21 1.46875 138.872 1.46875C139.549 1.46875 140.158 1.59115 140.7 1.83594C141.242 2.08073 141.708 2.43229 142.098 2.89062C142.489 3.34896 142.789 3.90104 142.997 4.54688C143.205 5.1875 143.309 5.90625 143.309 6.70312ZM142.356 7.92188V6.6875C142.356 6.01562 142.278 5.41146 142.122 4.875C141.971 4.33854 141.744 3.88021 141.442 3.5C141.145 3.11979 140.781 2.82812 140.348 2.625C139.916 2.42188 139.424 2.32031 138.872 2.32031C138.335 2.32031 137.854 2.42188 137.427 2.625C136.999 2.82812 136.635 3.11979 136.333 3.5C136.036 3.88021 135.807 4.33854 135.645 4.875C135.489 5.41146 135.411 6.01562 135.411 6.6875V7.92188C135.411 8.59896 135.489 9.20833 135.645 9.75C135.807 10.2865 136.039 10.7474 136.341 11.1328C136.643 11.513 137.007 11.8047 137.434 12.0078C137.867 12.2109 138.351 12.3125 138.888 12.3125C139.445 12.3125 139.937 12.2109 140.364 12.0078C140.791 11.8047 141.153 11.513 141.45 11.1328C141.747 10.7474 141.971 10.2865 142.122 9.75C142.278 9.20833 142.356 8.59896 142.356 7.92188ZM148.596 1.625H152.291C153.077 1.625 153.76 1.7526 154.338 2.00781C154.916 2.26302 155.361 2.64062 155.674 3.14062C155.991 3.63542 156.15 4.24479 156.15 4.96875C156.15 5.50521 156.036 5.99219 155.807 6.42969C155.583 6.86719 155.273 7.23438 154.877 7.53125C154.481 7.82292 154.023 8.02344 153.502 8.13281L153.166 8.25781H149.221L149.205 7.4375H152.51C153.103 7.4375 153.598 7.32292 153.994 7.09375C154.39 6.86458 154.687 6.5625 154.885 6.1875C155.088 5.80729 155.189 5.40104 155.189 4.96875C155.189 4.45312 155.077 4.00781 154.853 3.63281C154.635 3.2526 154.309 2.96094 153.877 2.75781C153.445 2.55469 152.916 2.45312 152.291 2.45312H149.557V13H148.596V1.625ZM155.619 13L152.674 7.91406L153.705 7.90625L156.643 12.8984V13H155.619ZM162.843 1.625V13H161.882V1.625H162.843ZM172.395 1.625V13H171.442V1.625H172.395ZM176.293 1.625V2.45312H167.551V1.625H176.293ZM188.673 6.72656V7.54688H181.759V6.72656H188.673ZM181.986 1.625V13H181.025V1.625H181.986ZM189.447 1.625V13H188.486V1.625H189.447ZM195.53 1.625H196.498L200.702 11.6406L204.913 1.625H205.873L201.069 13H200.334L195.53 1.625ZM195.233 1.625H196.084L196.186 8.03125V13H195.233V1.625ZM205.334 1.625H206.186V13H205.225V8.03125L205.334 1.625Z" fill="white"/>
<path d="M0 35.5H233.25" stroke="url(#paint0_linear_9_93)"/>
<defs>
<linearGradient id="paint0_linear_9_93" x1="0" y1="35.5" x2="231" y2="35.5" gradientUnits="userSpaceOnUse">
<stop stop-color="#E0E1E2" stop-opacity="0"/>
<stop offset="0.5" stop-color="#E0E1E2"/>
<stop offset="1" stop-color="#E0E1E2" stop-opacity="0.15625"/>
</linearGradient>
</defs>
</svg>
