<svg width="203" height="203" viewBox="0 0 203 203" fill="none" xmlns="http://www.w3.org/2000/svg">
<path d="M199.04 68.9383C202.254 67.6189 203.807 63.9339 202.3 60.8035C195.669 47.0355 186.127 34.8403 174.308 25.0763C160.868 13.9744 144.898 6.35827 127.813 2.90253C110.727 -0.553215 93.0523 0.258115 76.3549 5.26463C59.6575 10.2711 44.4526 19.3183 32.0868 31.6048C19.7211 43.8912 10.5763 59.0377 5.46253 75.7025C0.348721 92.3673 -0.576267 110.036 2.76951 127.144C6.1153 144.252 13.6285 160.27 24.6438 173.781C34.3316 185.663 46.4651 195.283 60.1902 202.002C63.3109 203.53 67.0058 202 68.3458 198.794C69.6858 195.589 68.1617 191.923 65.0533 190.37C53.2323 184.465 42.7758 176.108 34.3958 165.83C24.6881 153.923 18.0667 139.806 15.1181 124.729C12.1695 109.652 12.9847 94.0804 17.4914 79.3937C21.9982 64.7071 30.0575 51.3585 40.9553 40.5305C51.8532 29.7025 65.2533 21.7293 79.9687 17.317C94.684 12.9048 110.26 12.1898 125.318 15.2353C140.376 18.2809 154.45 24.9929 166.294 34.777C176.518 43.2229 184.808 53.7329 190.637 65.5917C192.169 68.71 195.825 70.2576 199.04 68.9383Z" fill="url(#paint0_linear_9_412)"/>
<defs>
<linearGradient id="paint0_linear_9_412" x1="87.2995" y1="13.2987" x2="4.29955" y2="121.299" gradientUnits="userSpaceOnUse">
<stop stop-color="#0075FF"/>
<stop offset="1" stop-color="#0075FF" stop-opacity="0"/>
</linearGradient>
</defs>
</svg>
