<svg width="193" height="206" viewBox="0 0 193 206" fill="none" xmlns="http://www.w3.org/2000/svg">
<path d="M188.877 59.1477C192.111 57.4964 193.412 53.5237 191.558 50.4019C183.276 36.4583 171.801 24.6389 158.041 15.9396C142.425 6.06686 124.44 0.576164 105.973 0.0429122C87.5053 -0.490339 69.2343 3.95349 53.0745 12.9087C36.9147 21.8639 23.461 35.0008 14.1235 50.9427C4.78586 66.8847 -0.0919045 85.0447 0.00131101 103.52C0.0945265 121.995 5.15529 140.105 14.6533 155.951C24.1513 171.798 37.7368 184.799 53.9861 193.59C68.3041 201.337 84.2259 205.565 100.438 205.968C104.068 206.058 106.897 202.981 106.756 199.353C106.614 195.724 103.555 192.923 99.9265 192.799C86.0737 192.325 72.4862 188.65 60.243 182.026C46.068 174.357 34.2168 163.016 25.9313 149.192C17.6458 135.368 13.2311 119.57 13.1498 103.453C13.0684 87.3368 17.3235 71.495 25.4691 57.5882C33.6147 43.6814 45.3509 32.2215 59.4478 24.4094C73.5447 16.5974 89.4833 12.7209 105.593 13.1861C121.703 13.6512 137.392 18.441 151.014 27.0534C162.781 34.4921 172.631 44.546 179.821 56.3968C181.704 59.5011 185.643 60.7989 188.877 59.1477Z" fill="url(#paint0_linear_9_372)"/>
<defs>
<linearGradient id="paint0_linear_9_372" x1="103" y1="0" x2="103" y2="190" gradientUnits="userSpaceOnUse">
<stop stop-color="#05CD99"/>
<stop offset="1" stop-color="#05CD99" stop-opacity="0"/>
</linearGradient>
</defs>
</svg>
