<svg width="144" height="149" viewBox="0 0 144 149" fill="none" xmlns="http://www.w3.org/2000/svg">
<path d="M30.687 93.9907C30.687 97.0605 29.8089 100.061 28.1639 102.614C26.5189 105.166 24.1808 107.155 21.4453 108.33C18.7098 109.504 15.6999 109.811 12.7961 109.212C9.89238 108.613 7.22527 107.134 5.13213 104.963C3.039 102.792 1.61386 100.026 1.03697 97.0147C0.460078 94.0038 0.757351 90.883 1.89119 88.0473C3.02502 85.2115 4.94449 82.788 7.40682 81.0834C9.86915 79.3788 12.7637 78.4696 15.7245 78.4708H30.687V93.9907ZM38.2276 93.9907C38.2276 89.8738 39.8049 85.9255 42.6126 83.0143C45.4203 80.1032 49.2283 78.4678 53.199 78.4678C57.1696 78.4678 60.9777 80.1032 63.7854 83.0143C66.593 85.9255 68.1704 89.8738 68.1704 93.9907V132.855C68.1704 136.971 66.5934 140.919 63.7862 143.829C60.9791 146.74 57.1718 148.375 53.2019 148.375C49.2321 148.375 45.4248 146.74 42.6177 143.829C39.8105 140.919 38.2335 136.971 38.2335 132.855L38.2276 93.9907ZM53.2019 31.6649C50.2412 31.6649 47.347 30.7545 44.8853 29.0489C42.4236 27.3432 40.5051 24.919 39.3724 22.0827C38.2396 19.2465 37.9435 16.1256 38.5216 13.1149C39.0996 10.1042 40.5258 7.3388 42.6198 5.16855C44.7137 2.9983 47.3814 1.52066 50.2854 0.922512C53.1894 0.324369 56.1992 0.632593 58.9342 1.8082C61.6693 2.98381 64.0066 4.974 65.6506 7.52704C67.2947 10.0801 68.1716 13.0813 68.1704 16.1511V31.6649H53.2019ZM53.2019 39.4833C57.1726 39.4833 60.9807 41.1188 63.7883 44.0299C66.596 46.941 68.1734 50.8893 68.1734 55.0063C68.1734 59.1232 66.596 63.0716 63.7883 65.9827C60.9807 68.8938 57.1726 70.5293 53.2019 70.5293H15.7126C11.7427 70.5293 7.93542 68.8941 5.12829 65.9836C2.32117 63.0731 0.744141 59.1255 0.744141 55.0094C0.744141 50.8932 2.32117 46.9457 5.12829 44.0351C7.93542 41.1246 11.7427 39.4895 15.7126 39.4895L53.2019 39.4833ZM113.313 55.0094C113.313 51.9395 114.191 48.9387 115.836 46.3863C117.481 43.834 119.819 41.8447 122.555 40.6703C125.29 39.4958 128.3 39.1888 131.204 39.7881C134.108 40.3875 136.775 41.8662 138.868 44.0373C140.961 46.2084 142.386 48.9744 142.963 51.9854C143.54 54.9963 143.243 58.1171 142.109 60.9528C140.975 63.7886 139.056 66.2121 136.593 67.9167C134.131 69.6213 131.236 70.5305 128.276 70.5293H113.313V55.0094ZM105.773 55.0094C105.773 59.1263 104.195 63.0746 101.388 65.9858C98.5799 68.8969 94.7718 70.5324 90.8012 70.5324C86.8305 70.5324 83.0225 68.8969 80.2148 65.9858C77.4071 63.0746 75.8298 59.1263 75.8298 55.0094V16.1388C75.8298 12.0227 77.4068 8.07512 80.2139 5.16457C83.021 2.25402 86.8283 0.618896 90.7982 0.618896C94.7681 0.618896 98.5754 2.25402 101.382 5.16457C104.19 8.07512 105.767 12.0227 105.767 16.1388L105.773 55.0094ZM90.7982 117.335C93.7589 117.335 96.6532 118.246 99.1148 119.951C101.577 121.657 103.495 124.081 104.628 126.917C105.761 129.754 106.057 132.874 105.479 135.885C104.901 138.896 103.474 141.661 101.38 143.832C99.2864 146.002 96.6187 147.479 93.7148 148.078C90.8108 148.676 87.8009 148.368 85.0659 147.192C82.3309 146.016 79.9936 144.026 78.3495 141.473C76.7055 138.92 75.8286 135.919 75.8298 132.849V117.335H90.7982ZM90.7982 109.517C86.8275 109.517 83.0195 107.881 80.2118 104.97C77.4041 102.059 75.8268 98.1108 75.8268 93.9938C75.8268 89.8769 77.4041 85.9285 80.2118 83.0174C83.0195 80.1063 86.8275 78.4708 90.7982 78.4708H128.282C132.252 78.4708 136.059 80.106 138.866 83.0165C141.673 85.9271 143.25 89.8746 143.25 93.9907C143.25 98.1069 141.673 102.054 138.866 104.965C136.059 107.876 132.252 109.511 128.282 109.511L90.7982 109.517Z" fill="white"/>
</svg>
